<?xml version="1.0" encoding="utf-8"?>
<!-- Generator: Adobe Illustrator 19.0.0, SVG Export Plug-In . SVG Version: 6.00 Build 0)  -->
<svg version="1.1" id="Layer_1" xmlns="http://www.w3.org/2000/svg" xmlns:xlink="http://www.w3.org/1999/xlink" x="0px" y="0px"
	 viewBox="0 0 493.4 499.1" style="enable-background:new 0 0 493.4 499.1;" xml:space="preserve">
<style type="text/css">
	.st0{fill:#2995F2;}
</style>
<g id="XMLID_1_">
	<path id="XMLID_471_" class="st0" d="M460.6,115.5c-6.7,2.1-13.6,3.9-20.2,6.4c-17.2,6.6-27.2,19.2-30.1,37.5
		c-1.5,10,0.9,19.2,5.1,28.2c1.1,2.3,2,4.8,3.1,7.3c-4,2-8,4-12,6c-9.3,4.8-16.3,11.9-20.6,21.4c-8.1,17.6-5.3,34.1,6.2,49.3
		c1.6,2.1,4.1,4.1,4.3,6.3c0.1,2-2.3,4.3-3.7,6.4c-13,19.6-10.7,43.9,5.7,59.9c3.4,3.3,7.3,6,11.1,9.1c-0.9,3.8-2.1,7.7-2.8,11.7
		c-3.1,17.5,2.2,32.2,15.4,44.1c3.6,3.3,7.5,6.3,11.2,9.5c-61,66.7-164,102.1-265.9,66.4C62.1,448.2-4.3,349,0.2,239
		C4.9,126.3,83.9,32,192.1,6.8C300.6-18.5,403.8,29.1,460.6,115.5z M417.2,103.1C340.7,14.7,197.5-4.6,98.9,85.5
		C7.8,168.9,0.3,312.2,89.5,404.3c86.9,89.7,221.6,86.9,304.7,14.4c-0.3-0.4-0.5-0.9-0.9-1.4c-5.7-7.5-9.6-15.9-12-25
		c-2.3-8.9-2.9-17.9-1.8-27c0.1-1-0.5-2.5-1.3-3.3c-21.2-22.1-26.7-53.4-14.3-81.3c0.6-1.3,0.5-2.2-0.2-3.4
		c-9.2-16.5-11.2-34.1-7-52.4c3.9-17,13.2-30.7,27.1-41.3c1.1-0.8,1.4-1.5,1.1-2.9c-1.9-8.6-2.3-17.2-1-25.9
		c2.5-16.3,9.4-30.3,21.3-41.8C409,109.5,413.2,106.4,417.2,103.1z"/>
	<path id="XMLID_470_" class="st0" d="M456.5,265.3c-16,0-29-12.8-29-28.8c-0.1-15.8,12.9-28.9,28.9-29.1c15.8-0.2,29,13,29,28.8
		C485.4,252.6,472.7,265.3,456.5,265.3z"/>
	<path id="XMLID_462_" class="st0" d="M445.1,319.7c0,7.3-6.1,13.3-13.5,13.2c-7.4-0.1-13.5-6.3-13.4-13.6
		c0.1-7.5,6.1-13.3,13.7-13.3C439.3,306,445.1,312,445.1,319.7z"/>
	<path id="XMLID_461_" class="st0" d="M493.4,308.1c0,7-5.7,12.6-12.8,12.6c-7.2,0-12.8-5.7-12.8-12.9c0-7,5.8-12.7,12.9-12.7
		C487.8,295.1,493.5,300.8,493.4,308.1z"/>
	<path id="XMLID_460_" class="st0" d="M453.5,173.2c0-6,4.5-10.5,10.4-10.5c5.9,0,10.6,4.6,10.6,10.4c0,6.1-4.6,10.6-10.6,10.6
		C458,183.7,453.5,179.2,453.5,173.2z"/>
	<path id="XMLID_450_" class="st0" d="M454.2,377.2c-3.8,0-6.8-3-6.8-6.7c0-3.7,3-6.7,6.8-6.7c3.9,0,6.8,2.9,6.7,6.7
		C460.9,374.4,458.1,377.2,454.2,377.2z"/>
	<path id="XMLID_351_" class="st0" d="M177.5,377.6c0,18-14.5,32.4-32.6,32.3c-18.1,0-32.5-14.6-32.4-32.8
		c0.1-17.8,14.7-32.5,33.5-32.3C163.2,345.1,177.5,359.7,177.5,377.6z"/>
	<path id="XMLID_350_" class="st0" d="M284.5,144.2c-18.2,0-32.5-14.5-32.5-32.9c0-17.4,14.8-32.1,32.5-32.1
		c18.2,0,32.6,14.6,32.6,32.9C317,129.9,302.4,144.2,284.5,144.2z"/>
	<path id="XMLID_349_" class="st0" d="M123.3,137c0-17.7,14.4-32,32.2-32.3c16.9-0.2,32.8,13.2,32.8,32.7
		c0.1,17.9-14.7,32.6-32.9,32.4C137.1,169.6,123,154.7,123.3,137z"/>
	<path id="XMLID_348_" class="st0" d="M248.5,289.5c-17.3,0-32.6-13.6-32.4-32.6c0.3-19.3,14.7-32.5,33-32.5
		c17.9,0,32.3,15.2,32.1,32.7C281,275.3,266.2,289.9,248.5,289.5z"/>
	<path id="XMLID_347_" class="st0" d="M317.1,353.8c17.9-0.1,32.5,14.4,32.5,32.4c0.1,17.7-14.5,32.5-32.2,32.6
		c-18.1,0.1-32.6-14.2-32.8-32.4C284.3,368.3,299.4,353.4,317.1,353.8z"/>
	<path id="XMLID_346_" class="st0" d="M63,259.6c-0.1-17.5,13.8-31.9,31.7-32.3c18.6-0.4,33.3,14.2,33.4,32.4
		c0,18.2-14.6,32.6-33,32.5C77.2,292.2,63,277.7,63,259.6z"/>
	<path id="XMLID_345_" class="st0" d="M224.4,366c0.2-7.6,5-12.3,12.3-12.1c6.1,0.2,11.4,5.8,11.2,12c-0.2,6.8-5.7,11.8-12.8,11.7
		C229.1,377.5,223.6,370.8,224.4,366z"/>
	<path id="XMLID_344_" class="st0" d="M188,291.4c0,5.5-4.3,9.6-9.9,9.6c-5.2,0-9.6-4.5-9.5-9.8c0.1-5.3,4.4-9.6,9.7-9.6
		C183.8,281.6,188,285.9,188,291.4z"/>
	<path id="XMLID_343_" class="st0" d="M231.4,163.1c4.9-0.1,8.9,3.7,9,8.7c0.1,4.8-3.9,8.9-8.8,9c-4.9,0-9-3.9-9.1-8.6
		C222.5,167.1,226.3,163.2,231.4,163.1z"/>
</g>
</svg>
