<?xml version="1.0" encoding="utf-8"?>
<!-- Generator: Adobe Illustrator 22.0.1, SVG Export Plug-In . SVG Version: 6.00 Build 0)  -->
<svg version="1.1" id="Layer_1" xmlns="http://www.w3.org/2000/svg" xmlns:xlink="http://www.w3.org/1999/xlink" x="0px" y="0px"
	 viewBox="0 0 3000 1967.3" style="enable-background:new 0 0 3000 1967.3;" xml:space="preserve">
<style type="text/css">
	.st0{fill:#2995F2;}
</style>
<g>
	<g id="YK">
		<g id="YK_1_">
			<path id="Y" class="st0" d="M711,1283.5v42.3c0.2,0.3,0.6,0.6,0.8,2.2h218.9v-2.1h2.1v-42.4H711z M1461,166h-0.6l46.4,46.4
				l0.3-0.4L1461,166z"/>
			<polygon class="st0" points="2568.9,166 2327.3,398.2 2184.3,535.6 1758.3,945.1 2140.4,1337.9 1994.1,1488 1508,984.3 
				1508,1743.3 1505.3,1740.6 1444.5,1801.3 1346.1,1801.3 1286.2,1741.3 1286.2,541.7 932.8,1071.6 932.8,1259 711,1259 
				711,1078.6 105,166 362,166 823.1,870.9 1286.3,166 1460.6,166 1507,212.4 1507.3,212 1508,210.9 1508,913.6 2041.3,398 
				2184.3,259.7 2281.3,166 			"/>
			<polygon class="st0" points="2592.3,1801.3 2297.6,1801.3 2228,1728 2374.3,1576.7 2562.6,1771 			"/>
		</g>
		<g id="pen">
			<path class="st0" d="M963.9,1535l-31.2,64.6c-24.1,49.8-48.1,99.5-72.1,149.3c-6.9,14.5-14,29-21,43.5c-0.7,1.5-1.6,3-3,5.7
				c-0.3-2.8-0.5-4.2-0.5-5.7l-0.1-211.7c0-3.6,1.1-5.4,4.5-7c20.1-9.3,31-31.2,26.3-52.1c-5-21.6-23.9-37-45.9-37.3
				c-22.3-0.3-41.8,14.6-47,35.8c-5.3,21.5,4.7,43.5,24.9,53.1c4.4,2.1,5.6,4.4,5.6,9.1c-0.1,69.9-0.1,139.7-0.1,209.6v5.1
				c-0.4,0.1-0.8,0.2-1.2,0.4c-5.5-11.4-11-22.9-16.5-34.3c-26-53.8-51.9-107.6-78-161.3c-10.6-22.1-21.4-44.2-32.1-66.2
				c-1.7-3.6-1.7-6.1,0.7-9.4c11.6-16.3,22.4-32.9,31.3-50.6c5-9.8,9.5-20,13.2-30.5c9.5-27,15.6-54.7,17.3-83.3
				c0-1.2,0.2-2.3,0.4-3.8h161.1c0.9,7.9,1.6,15.8,2.7,23.7c4.4,33.9,14.1,65.9,29.4,95.8c5.3,10.5,11.3,20.6,18,30.6
				c4.2,6.3,8.2,12.6,12.7,18.6C965.7,1529.5,965.5,1531.9,963.9,1535z"/>
			<path class="st0" d="M836.4,1532.9c-0.4,8.6-7.8,15.4-16.3,15c-8.6-0.4-15.3-7.7-14.9-16.4c0.4-8.6,7.7-15.4,16.3-15
				C830,1516.9,836.8,1524.4,836.4,1532.9z"/>
		</g>
	</g>
	<g id="_x3E_">
		<polygon class="st0" points="1997.1,354.1 1799.9,166 2087.2,166 2140.2,215.8 		"/>
		<polygon class="st0" points="2895,948.8 2859.7,985.3 2330.3,1532.8 2184.1,1684.1 2070.7,1801.3 1776.3,1801.3 2037.8,1533 
			2184.1,1382.9 2609.7,946 2228,580.4 2371,443 2859.7,914.6 		"/>
	</g>
</g>
</svg>
